<?xml version="1.0" encoding="UTF-8"?>
<svg xmlns="http://www.w3.org/2000/svg" xmlns:xlink="http://www.w3.org/1999/xlink" width="80px" height="80px" viewBox="0 0 80 80" version="1.1">
<g id="surface1">
<path style=" stroke:none;fill-rule:nonzero;fill:rgb(12.156863%,37.64706%,100%);fill-opacity:1;" d="M 20.90625 25.304688 L 19.230469 23.6875 L 5.203125 55.1875 "/>
<path style=" stroke:none;fill-rule:nonzero;fill:rgb(100%,100%,100%);fill-opacity:1;" d="M 20.945312 25.316406 L 19.628906 25.035156 L 5.203125 55.1875 L 5.210938 55.179688 "/>
<path style=" stroke:none;fill-rule:nonzero;fill:rgb(100%,100%,100%);fill-opacity:1;" d="M 25.226562 33.644531 L 28.429688 23.6875 L 32.089844 23.6875 L 35.414062 33.644531 L 32.375 33.644531 L 30.230469 25.890625 C 30.046875 26.785156 28.222656 33.644531 28.222656 33.644531 Z M 27.601562 31.734375 L 27.601562 29.714844 L 33.039062 29.714844 L 33.039062 31.734375 Z M 27.601562 31.734375 "/>
<path style=" stroke:none;fill-rule:nonzero;fill:rgb(100%,100%,100%);fill-opacity:1;" d="M 36.402344 33.644531 L 36.402344 27.421875 L 37.796875 27.421875 C 37.796875 27.421875 39.527344 32.296875 39.574219 32.480469 C 39.621094 32.664062 39.601562 32.585938 39.601562 32.585938 C 39.601562 32.585938 39.578125 32.664062 39.628906 32.480469 C 39.675781 32.296875 41.386719 27.421875 41.386719 27.421875 L 42.785156 27.421875 L 42.785156 33.644531 L 41.84375 33.644531 L 41.84375 30.296875 C 41.84375 30.167969 41.847656 30.015625 41.847656 29.835938 C 41.851562 29.65625 41.855469 29.46875 41.859375 29.269531 C 41.863281 29.070312 41.867188 28.871094 41.871094 28.667969 C 41.875 28.464844 41.878906 28.378906 41.878906 28.378906 C 41.820312 28.582031 41.835938 28.496094 41.773438 28.710938 C 41.707031 28.925781 41.644531 29.132812 41.582031 29.335938 C 41.519531 29.535156 41.460938 29.71875 41.402344 29.882812 C 41.347656 30.050781 41.300781 30.1875 41.261719 30.296875 L 39.996094 33.644531 L 39.1875 33.644531 L 37.90625 30.296875 C 37.867188 30.191406 37.816406 30.054688 37.765625 29.894531 C 37.710938 29.730469 37.652344 29.550781 37.589844 29.351562 C 37.523438 29.152344 37.460938 28.941406 37.394531 28.726562 C 37.328125 28.511719 37.285156 28.378906 37.285156 28.378906 C 37.289062 28.546875 37.285156 28.4375 37.292969 28.636719 C 37.296875 28.835938 37.300781 29.035156 37.304688 29.238281 C 37.308594 29.441406 37.3125 29.636719 37.316406 29.816406 C 37.320312 30 37.324219 30.160156 37.324219 30.296875 L 37.324219 33.644531 Z M 36.402344 33.644531 "/>
<path style=" stroke:none;fill-rule:nonzero;fill:rgb(100%,100%,100%);fill-opacity:1;" d="M 44.148438 33.644531 L 44.148438 27.421875 L 48.039062 27.421875 L 48.039062 28.242188 L 45.09375 28.242188 L 45.09375 30.097656 L 47.828125 30.097656 L 47.828125 30.910156 L 45.09375 30.910156 L 45.09375 32.828125 L 48.0625 32.828125 L 48.0625 33.644531 Z M 44.148438 33.644531 "/>
<path style=" stroke:none;fill-rule:nonzero;fill:rgb(100%,100%,100%);fill-opacity:1;" d="M 49.269531 33.644531 L 49.269531 27.421875 L 51.480469 27.421875 C 51.957031 27.421875 52.355469 27.503906 52.671875 27.671875 C 52.988281 27.835938 53.226562 28.066406 53.382812 28.363281 C 53.542969 28.65625 53.621094 28.996094 53.621094 29.378906 C 53.621094 29.757812 53.542969 30.097656 53.382812 30.386719 C 53.222656 30.675781 52.984375 30.898438 52.667969 31.054688 C 52.347656 31.214844 51.953125 31.292969 51.472656 31.292969 L 49.8125 31.292969 L 49.8125 30.480469 L 51.382812 30.480469 C 51.6875 30.480469 51.933594 30.4375 52.117188 30.347656 C 52.304688 30.261719 52.441406 30.132812 52.53125 29.96875 C 52.621094 29.804688 52.664062 29.609375 52.664062 29.378906 C 52.664062 29.144531 52.621094 28.941406 52.53125 28.773438 C 52.441406 28.601562 52.304688 28.46875 52.117188 28.378906 C 51.929688 28.285156 51.679688 28.238281 51.375 28.238281 L 50.214844 28.238281 L 50.214844 33.644531 Z M 52.777344 33.644531 L 51.285156 30.835938 L 52.332031 30.835938 L 53.851562 33.644531 Z M 52.777344 33.644531 "/>
<path style=" stroke:none;fill-rule:nonzero;fill:rgb(100%,100%,100%);fill-opacity:1;" d="M 55.714844 27.421875 L 55.714844 33.644531 L 54.769531 33.644531 L 54.769531 27.421875 Z M 55.714844 27.421875 "/>
<path style=" stroke:none;fill-rule:nonzero;fill:rgb(100%,100%,100%);fill-opacity:1;" d="M 59.648438 33.730469 C 59.113281 33.730469 58.636719 33.601562 58.21875 33.347656 C 57.796875 33.09375 57.46875 32.726562 57.226562 32.25 C 56.988281 31.769531 56.867188 31.203125 56.867188 30.539062 C 56.867188 29.875 56.988281 29.300781 57.226562 28.824219 C 57.46875 28.347656 57.796875 27.980469 58.21875 27.722656 C 58.636719 27.46875 59.113281 27.339844 59.648438 27.339844 C 59.972656 27.339844 60.28125 27.386719 60.566406 27.480469 C 60.851562 27.574219 61.109375 27.714844 61.332031 27.894531 C 61.558594 28.074219 61.746094 28.296875 61.894531 28.554688 C 62.039062 28.8125 62.140625 29.109375 62.191406 29.4375 L 61.246094 29.4375 C 61.207031 29.238281 61.136719 29.0625 61.039062 28.910156 C 60.941406 28.761719 60.820312 28.632812 60.679688 28.527344 C 60.539062 28.417969 60.382812 28.339844 60.207031 28.289062 C 60.035156 28.234375 59.851562 28.207031 59.65625 28.207031 C 59.304688 28.207031 58.984375 28.296875 58.707031 28.476562 C 58.425781 28.65625 58.203125 28.921875 58.042969 29.265625 C 57.882812 29.613281 57.804688 30.039062 57.804688 30.539062 C 57.804688 31.039062 57.886719 31.464844 58.046875 31.808594 C 58.210938 32.15625 58.433594 32.417969 58.710938 32.59375 C 58.992188 32.773438 59.304688 32.859375 59.65625 32.859375 C 59.851562 32.859375 60.035156 32.832031 60.207031 32.78125 C 60.378906 32.726562 60.535156 32.644531 60.679688 32.542969 C 60.820312 32.4375 60.941406 32.308594 61.039062 32.15625 C 61.136719 32.003906 61.207031 31.828125 61.246094 31.632812 L 62.199219 31.632812 C 62.152344 31.941406 62.054688 32.21875 61.910156 32.476562 C 61.769531 32.730469 61.585938 32.953125 61.359375 33.140625 C 61.136719 33.332031 60.878906 33.476562 60.589844 33.578125 C 60.304688 33.679688 59.988281 33.730469 59.648438 33.730469 Z M 59.648438 33.730469 "/>
<path style=" stroke:none;fill-rule:nonzero;fill:rgb(100%,100%,100%);fill-opacity:1;" d="M 62.648438 33.644531 L 64.847656 27.421875 L 66.007812 27.421875 L 68.246094 33.644531 L 67.222656 33.644531 L 66.019531 30.183594 C 65.925781 29.902344 65.824219 29.570312 65.710938 29.1875 C 65.625 28.894531 65.527344 28.554688 65.421875 28.167969 C 65.421875 28.167969 65.246094 28.816406 65.136719 29.203125 C 65.023438 29.589844 64.925781 29.914062 64.839844 30.183594 L 63.675781 33.644531 Z M 63.839844 32.003906 L 64.253906 31.210938 L 66.691406 31.210938 L 67.050781 32.003906 Z M 63.839844 32.003906 "/>
<path style=" stroke:none;fill-rule:nonzero;fill:rgb(100%,100%,100%);fill-opacity:1;" d="M 69.140625 33.644531 L 69.140625 27.421875 L 70.230469 27.421875 L 73.234375 32.367188 C 73.234375 32.367188 73.234375 31.101562 73.234375 30.964844 L 73.234375 27.421875 L 74.191406 27.421875 L 74.191406 33.644531 L 73.097656 33.644531 C 73.097656 33.644531 70.1875 28.867188 70.097656 28.703125 C 70.097656 28.703125 70.097656 30.203125 70.097656 30.324219 L 70.097656 33.644531 Z M 69.140625 33.644531 "/>
<path style=" stroke:none;fill-rule:nonzero;fill:rgb(100%,100%,100%);fill-opacity:1;" d="M 18.855469 44.21875 L 18.855469 34.035156 L 21.59375 34.035156 L 21.59375 37.90625 L 25.230469 37.90625 L 25.230469 34.035156 L 27.96875 34.035156 L 27.96875 44.21875 L 25.230469 44.21875 L 25.230469 40.132812 L 21.59375 40.132812 L 21.59375 44.21875 Z M 18.855469 44.21875 "/>
<path style=" stroke:none;fill-rule:nonzero;fill:rgb(100%,100%,100%);fill-opacity:1;" d="M 31.953125 44.304688 C 31.40625 44.304688 30.917969 44.175781 30.488281 43.914062 C 30.058594 43.652344 29.71875 43.277344 29.46875 42.789062 C 29.222656 42.300781 29.097656 41.71875 29.097656 41.042969 C 29.097656 40.363281 29.222656 39.777344 29.46875 39.289062 C 29.71875 38.800781 30.054688 38.425781 30.488281 38.164062 C 30.917969 37.902344 31.40625 37.769531 31.953125 37.769531 C 32.496094 37.769531 32.984375 37.902344 33.414062 38.164062 C 33.839844 38.425781 34.179688 38.800781 34.425781 39.289062 C 34.671875 39.777344 34.796875 40.359375 34.796875 41.042969 C 34.796875 41.722656 34.671875 42.300781 34.425781 42.789062 C 34.179688 43.277344 33.839844 43.652344 33.414062 43.914062 C 32.984375 44.175781 32.496094 44.304688 31.953125 44.304688 Z M 31.953125 43.417969 C 32.3125 43.417969 32.632812 43.328125 32.917969 43.144531 C 33.199219 42.964844 33.425781 42.695312 33.589844 42.34375 C 33.753906 41.988281 33.839844 41.554688 33.839844 41.042969 C 33.839844 40.53125 33.753906 40.085938 33.589844 39.734375 C 33.425781 39.378906 33.199219 39.109375 32.917969 38.929688 C 32.632812 38.75 32.3125 38.660156 31.953125 38.660156 C 31.59375 38.660156 31.265625 38.75 30.980469 38.933594 C 30.695312 39.113281 30.46875 39.382812 30.304688 39.738281 C 30.140625 40.089844 30.058594 40.527344 30.058594 41.042969 C 30.058594 41.558594 30.140625 41.988281 30.304688 42.339844 C 30.46875 42.691406 30.695312 42.960938 30.980469 43.144531 C 31.265625 43.324219 31.589844 43.417969 31.953125 43.417969 Z M 31.953125 43.417969 "/>
<path style=" stroke:none;fill-rule:nonzero;fill:rgb(100%,100%,100%);fill-opacity:1;" d="M 36.976562 44.007812 C 36.570312 43.808594 36.25 43.542969 36.023438 43.1875 C 35.796875 42.832031 35.683594 42.414062 35.683594 41.929688 L 35.683594 37.855469 L 37.394531 37.855469 L 37.394531 41.785156 C 37.394531 41.984375 37.4375 42.160156 37.527344 42.3125 C 37.613281 42.464844 37.734375 42.585938 37.882812 42.671875 C 38.035156 42.757812 38.207031 42.800781 38.402344 42.800781 C 38.597656 42.800781 38.777344 42.757812 38.929688 42.671875 C 39.082031 42.585938 39.203125 42.464844 39.289062 42.3125 C 39.378906 42.160156 39.421875 41.984375 39.421875 41.785156 L 39.421875 37.855469 L 41.132812 37.855469 L 41.132812 41.929688 C 41.132812 42.414062 41.019531 42.832031 40.789062 43.1875 C 40.5625 43.542969 40.246094 43.828125 39.832031 44.007812 C 38.617188 44.539062 37.40625 44.21875 36.976562 44.007812 Z M 36.976562 44.007812 "/>
<path style=" stroke:none;fill-rule:nonzero;fill:rgb(100%,100%,100%);fill-opacity:1;" d="M 43.082031 44.050781 C 42.671875 43.886719 42.355469 43.632812 42.128906 43.292969 C 41.902344 42.949219 41.789062 42.515625 41.785156 41.980469 L 43.414062 41.980469 C 43.425781 42.175781 43.472656 42.339844 43.558594 42.472656 C 43.648438 42.605469 43.769531 42.707031 43.925781 42.777344 C 44.082031 42.84375 44.269531 42.878906 44.492188 42.878906 C 44.675781 42.878906 44.828125 42.855469 44.953125 42.808594 C 45.078125 42.765625 45.171875 42.703125 45.234375 42.621094 C 45.296875 42.539062 45.328125 42.445312 45.328125 42.339844 C 45.328125 42.242188 45.300781 42.160156 45.238281 42.085938 C 45.179688 42.015625 45.078125 41.949219 44.941406 41.886719 C 44.800781 41.828125 44.613281 41.773438 44.378906 41.726562 L 43.746094 41.589844 C 43.1875 41.46875 42.75 41.265625 42.429688 40.976562 C 42.109375 40.6875 41.945312 40.292969 41.945312 39.792969 C 41.945312 39.390625 42.054688 39.035156 42.273438 38.734375 C 42.492188 38.429688 42.792969 38.195312 43.175781 38.023438 C 43.558594 37.855469 44 37.769531 44.5 37.769531 C 45 37.769531 45.453125 37.855469 45.824219 38.027344 C 46.195312 38.199219 46.480469 38.441406 46.683594 38.753906 C 46.886719 39.066406 46.988281 39.429688 46.992188 39.847656 L 45.347656 39.847656 C 45.332031 39.636719 45.257812 39.476562 45.121094 39.359375 C 44.984375 39.246094 44.777344 39.1875 44.5 39.1875 C 44.324219 39.1875 44.179688 39.210938 44.066406 39.25 C 43.953125 39.292969 43.871094 39.347656 43.816406 39.421875 C 43.761719 39.496094 43.734375 39.582031 43.734375 39.675781 C 43.734375 39.773438 43.765625 39.863281 43.824219 39.9375 C 43.882812 40.011719 43.972656 40.078125 44.097656 40.132812 C 44.222656 40.191406 44.386719 40.238281 44.585938 40.28125 L 45.101562 40.394531 C 45.449219 40.46875 45.746094 40.566406 45.996094 40.6875 C 46.246094 40.808594 46.453125 40.953125 46.613281 41.117188 C 46.773438 41.28125 46.890625 41.464844 46.964844 41.667969 C 47.039062 41.875 47.078125 42.097656 47.078125 42.339844 C 47.078125 42.757812 46.972656 43.113281 46.769531 43.40625 C 46.5625 43.699219 46.28125 43.949219 45.890625 44.070312 C 44.515625 44.492188 43.488281 44.214844 43.082031 44.050781 Z M 43.082031 44.050781 "/>
<path style=" stroke:none;fill-rule:nonzero;fill:rgb(100%,100%,100%);fill-opacity:1;" d="M 48.988281 37.855469 L 48.988281 44.296875 L 48.023438 44.296875 L 48.023438 37.855469 Z M 48.988281 37.855469 "/>
<path style=" stroke:none;fill-rule:nonzero;fill:rgb(100%,100%,100%);fill-opacity:1;" d="M 50.386719 44.292969 L 50.386719 37.855469 L 51.515625 37.855469 L 54.621094 42.96875 L 54.621094 37.855469 L 55.613281 37.855469 L 55.613281 44.292969 L 54.480469 44.292969 C 54.480469 44.292969 51.46875 39.351562 51.378906 39.179688 C 51.378906 39.179688 51.378906 40.730469 51.378906 40.859375 L 51.378906 44.292969 Z M 50.386719 44.292969 "/>
<path style=" stroke:none;fill-rule:nonzero;fill:rgb(100%,100%,100%);fill-opacity:1;" d="M 59.605469 44.304688 C 59.035156 44.304688 58.535156 44.171875 58.105469 43.90625 C 57.671875 43.644531 57.335938 43.265625 57.09375 42.777344 C 56.855469 42.289062 56.734375 41.710938 56.734375 41.042969 C 56.734375 40.371094 56.855469 39.78125 57.097656 39.292969 C 57.34375 38.804688 57.679688 38.429688 58.105469 38.164062 C 58.53125 37.902344 59.019531 37.769531 59.566406 37.769531 C 59.902344 37.769531 60.222656 37.820312 60.515625 37.921875 C 60.8125 38.023438 61.074219 38.167969 61.308594 38.351562 C 61.542969 38.539062 61.734375 38.761719 61.886719 39.019531 C 62.035156 39.277344 62.136719 39.558594 62.1875 39.867188 L 61.195312 39.867188 C 61.140625 39.683594 61.0625 39.515625 60.964844 39.367188 C 60.863281 39.214844 60.746094 39.089844 60.609375 38.984375 C 60.472656 38.878906 60.316406 38.796875 60.144531 38.742188 C 59.96875 38.6875 59.777344 38.660156 59.574219 38.660156 C 59.214844 38.660156 58.898438 38.75 58.613281 38.933594 C 58.328125 39.113281 58.105469 39.382812 57.9375 39.738281 C 57.773438 40.09375 57.691406 40.527344 57.691406 41.039062 C 57.691406 41.550781 57.773438 41.984375 57.9375 42.335938 C 58.105469 42.6875 58.332031 42.957031 58.621094 43.140625 C 58.90625 43.324219 59.238281 43.417969 59.609375 43.417969 C 59.949219 43.417969 60.246094 43.347656 60.5 43.210938 C 60.753906 43.070312 60.949219 42.875 61.089844 42.621094 C 61.226562 42.363281 61.296875 42.0625 61.296875 41.714844 L 61.546875 41.757812 L 59.75 41.757812 L 59.75 40.957031 L 62.242188 40.957031 L 62.242188 41.6875 C 62.242188 42.222656 62.128906 42.6875 61.902344 43.078125 C 61.675781 43.46875 61.363281 43.773438 60.96875 43.984375 C 60.570312 44.199219 60.117188 44.304688 59.605469 44.304688 Z M 59.605469 44.304688 "/>
<path style=" stroke:none;fill-rule:nonzero;fill:rgb(100%,100%,100%);fill-opacity:1;" d="M 11.835938 54.992188 L 15.109375 44.808594 L 18.855469 44.808594 L 22.25 54.992188 L 19.144531 54.992188 C 19.144531 54.992188 17.050781 47.496094 16.953125 47.0625 L 14.898438 54.992188 Z M 14.261719 53.035156 L 14.261719 50.972656 L 19.824219 50.972656 L 19.824219 53.035156 Z M 14.261719 53.035156 "/>
<path style=" stroke:none;fill-rule:nonzero;fill:rgb(100%,100%,100%);fill-opacity:1;" d="M 24.453125 54.792969 C 24.0625 54.628906 23.78125 54.328125 23.574219 53.984375 C 23.367188 53.640625 23.261719 53.246094 23.261719 52.804688 L 23.261719 48.625 L 24.230469 48.625 L 24.230469 52.722656 C 24.230469 53.007812 24.292969 53.265625 24.417969 53.488281 C 24.542969 53.707031 24.722656 53.882812 24.953125 54.011719 C 25.1875 54.140625 25.460938 54.203125 25.78125 54.203125 C 26.101562 54.203125 26.371094 54.140625 26.601562 54.011719 C 26.832031 53.882812 27.007812 53.707031 27.132812 53.488281 C 27.257812 53.265625 27.320312 53.007812 27.320312 52.722656 L 27.320312 48.625 L 28.292969 48.625 L 28.292969 52.804688 C 28.292969 53.246094 28.1875 53.640625 27.980469 53.984375 C 27.773438 54.328125 27.480469 54.597656 27.101562 54.792969 C 26.726562 54.988281 25.78125 55.355469 24.453125 54.792969 Z M 24.453125 54.792969 "/>
<path style=" stroke:none;fill-rule:nonzero;fill:rgb(100%,100%,100%);fill-opacity:1;" d="M 29.371094 49.464844 L 29.371094 48.625 L 34.277344 48.625 L 34.277344 49.464844 L 32.3125 49.464844 L 32.3125 54.988281 L 31.34375 54.988281 L 31.34375 49.464844 Z M 29.371094 49.464844 "/>
<path style=" stroke:none;fill-rule:nonzero;fill:rgb(100%,100%,100%);fill-opacity:1;" d="M 35.355469 54.992188 L 35.355469 48.625 L 36.324219 48.625 L 36.324219 51.316406 L 39.453125 51.316406 L 39.453125 48.625 L 40.421875 48.625 L 40.421875 54.992188 L 39.453125 54.992188 L 39.453125 52.15625 L 36.324219 52.15625 L 36.324219 54.992188 Z M 35.355469 54.992188 "/>
<path style=" stroke:none;fill-rule:nonzero;fill:rgb(100%,100%,100%);fill-opacity:1;" d="M 44.453125 55.074219 C 43.90625 55.074219 43.417969 54.945312 42.988281 54.683594 C 42.558594 54.425781 42.21875 54.050781 41.972656 53.5625 C 41.722656 53.074219 41.601562 52.492188 41.601562 51.8125 C 41.601562 51.132812 41.722656 50.546875 41.972656 50.058594 C 42.21875 49.570312 42.558594 49.195312 42.988281 48.933594 C 43.417969 48.671875 43.90625 48.539062 44.453125 48.539062 C 45 48.539062 45.484375 48.671875 45.914062 48.933594 C 46.34375 49.195312 46.679688 49.570312 46.925781 50.058594 C 47.171875 50.546875 47.296875 51.132812 47.296875 51.8125 C 47.296875 52.492188 47.171875 53.074219 46.925781 53.5625 C 46.679688 54.050781 46.339844 54.425781 45.914062 54.683594 C 45.484375 54.945312 45 55.074219 44.453125 55.074219 Z M 44.453125 54.1875 C 44.8125 54.1875 45.132812 54.097656 45.417969 53.917969 C 45.703125 53.734375 45.925781 53.46875 46.089844 53.113281 C 46.257812 52.757812 46.339844 52.324219 46.339844 51.8125 C 46.339844 51.300781 46.257812 50.859375 46.089844 50.503906 C 45.925781 50.148438 45.703125 49.882812 45.417969 49.699219 C 45.132812 49.519531 44.8125 49.429688 44.453125 49.429688 C 44.09375 49.429688 43.769531 49.519531 43.484375 49.703125 C 43.195312 49.886719 42.972656 50.152344 42.804688 50.507812 C 42.640625 50.863281 42.558594 51.296875 42.558594 51.8125 C 42.558594 52.328125 42.640625 52.757812 42.804688 53.109375 C 42.972656 53.464844 43.195312 53.730469 43.484375 53.914062 C 43.769531 54.097656 44.089844 54.1875 44.453125 54.1875 Z M 44.453125 54.1875 "/>
<path style=" stroke:none;fill-rule:nonzero;fill:rgb(100%,100%,100%);fill-opacity:1;" d="M 48.476562 54.992188 L 48.476562 48.625 L 50.738281 48.625 C 51.226562 48.625 51.632812 48.710938 51.957031 48.878906 C 52.28125 49.050781 52.523438 49.285156 52.6875 49.585938 C 52.847656 49.890625 52.925781 50.234375 52.925781 50.625 C 52.925781 51.015625 52.847656 51.363281 52.683594 51.65625 C 52.519531 51.953125 52.277344 52.179688 51.953125 52.34375 C 51.628906 52.503906 51.21875 52.585938 50.730469 52.585938 L 49.03125 52.585938 L 49.03125 51.753906 L 50.636719 51.753906 C 50.949219 51.753906 51.199219 51.707031 51.390625 51.617188 C 51.582031 51.527344 51.722656 51.398438 51.8125 51.230469 C 51.902344 51.0625 51.949219 50.863281 51.949219 50.625 C 51.949219 50.386719 51.902344 50.179688 51.8125 50.003906 C 51.722656 49.832031 51.582031 49.699219 51.390625 49.601562 C 51.195312 49.507812 50.945312 49.460938 50.628906 49.460938 L 49.441406 49.460938 L 49.441406 54.992188 Z M 52.066406 54.992188 L 50.535156 52.117188 L 51.609375 52.117188 L 53.164062 54.992188 Z M 52.066406 54.992188 "/>
<path style=" stroke:none;fill-rule:nonzero;fill:rgb(100%,100%,100%);fill-opacity:1;" d="M 30.851562 59.476562 C 30.289062 61.527344 31.402344 63.519531 32.804688 64.941406 C 33.542969 65.691406 34.371094 66.351562 35.1875 67.015625 C 35.996094 67.679688 36.820312 68.328125 37.664062 68.949219 C 40.953125 71.367188 44.699219 73.355469 48.855469 73.5625 C 51.070312 73.671875 53.316406 73.253906 55.261719 72.160156 C 55.542969 72.003906 55.289062 71.570312 55.007812 71.726562 C 51.617188 73.636719 47.429688 73.347656 43.90625 71.964844 C 42.050781 71.238281 40.320312 70.214844 38.6875 69.070312 C 37.035156 67.914062 35.433594 66.648438 33.921875 65.308594 C 32.335938 63.902344 30.710938 61.878906 31.335938 59.609375 C 31.421875 59.300781 30.9375 59.167969 30.855469 59.476562 Z M 30.851562 59.476562 "/>
<path style=" stroke:none;fill-rule:nonzero;fill:rgb(100%,100%,100%);fill-opacity:1;" d="M 63.46875 87.089844 C 61.347656 85.199219 58.921875 83.699219 56.410156 82.386719 C 53.847656 81.046875 51.199219 79.878906 48.597656 78.613281 C 45.847656 77.273438 43.128906 75.867188 40.449219 74.390625 C 37.769531 72.914062 35.125 71.371094 32.523438 69.761719 C 29.917969 68.152344 27.335938 66.464844 24.804688 64.71875 C 24.496094 64.503906 24.1875 64.289062 23.878906 64.074219 C 23.617188 63.890625 23.363281 64.324219 23.628906 64.507812 C 26.136719 66.261719 28.6875 67.953125 31.277344 69.578125 C 33.859375 71.195312 36.484375 72.75 39.140625 74.234375 C 41.800781 75.722656 44.5 77.144531 47.230469 78.496094 C 49.847656 79.792969 52.515625 80.980469 55.125 82.289062 C 57.648438 83.558594 60.128906 84.964844 62.320312 86.761719 C 62.589844 86.984375 62.855469 87.210938 63.113281 87.445312 C 63.355469 87.65625 63.707031 87.304688 63.46875 87.089844 Z M 63.46875 87.089844 "/>
</g>
</svg>
