<?xml version="1.0" encoding="UTF-8" standalone="no"?>
<!DOCTYPE svg PUBLIC "-//W3C//DTD SVG 1.1//EN" "http://www.w3.org/Graphics/SVG/1.1/DTD/svg11.dtd">
<svg width="100%" height="100%" viewBox="0 0 300 300" version="1.1" xmlns="http://www.w3.org/2000/svg" xmlns:xlink="http://www.w3.org/1999/xlink" xml:space="preserve" xmlns:serif="http://www.serif.com/" style="fill-rule:evenodd;clip-rule:evenodd;stroke-linejoin:round;stroke-miterlimit:2;">
    <g transform="matrix(4.023602,0,0,4.023602,-754.072337,-101.492371)">
        <g transform="matrix(0.11875,0,0,0.11875,198.28125,-75.46875)">
            <g transform="matrix(0.758853,0,0,0.735632,-503.499157,602.442226)">
                <g>
                    <g>
                        <g transform="matrix(1,0,0,1,0,-228.947368)">
                            <path d="M786.6,887.18L824.27,770.1L867.32,770.1L906.39,887.18L870.67,887.18L857.18,841.76C854.27,831.91 851.54,821.68 848.99,811.07C846.44,800.46 844.02,789.92 841.74,779.44L848.91,779.44C846.73,789.92 844.52,800.46 842.28,811.07C840.04,821.68 837.52,831.91 834.72,841.76L821.85,887.18L786.6,887.18ZM814.52,864.7L814.52,840.97L878.47,840.97L878.47,864.7L814.52,864.7Z" style="fill:white;fill-rule:nonzero;"/>
                        </g>
                        <g transform="matrix(1,0,0,1,0,-228.947368)">
                            <path d="M918.02,887.18L918.02,814L934.4,814L950.24,855.99C950.7,857.23 951.21,858.81 951.78,860.7C952.35,862.6 952.94,864.66 953.56,866.89C954.18,869.12 954.76,871.31 955.31,873.47C955.86,875.63 956.35,877.58 956.77,879.31L954.43,879.31C954.85,877.67 955.34,875.78 955.89,873.64C956.44,871.5 957.03,869.31 957.64,867.08C958.26,864.85 958.86,862.76 959.44,860.79C960.02,858.82 960.54,857.22 961,855.98L976.6,813.99L993.07,813.99L993.07,887.17L982.01,887.17L982.01,847.78C982.01,846.27 982.03,844.47 982.06,842.38C982.09,840.29 982.13,838.07 982.18,835.73C982.23,833.39 982.28,831.02 982.33,828.63C982.38,826.24 982.42,823.95 982.45,821.75L983.28,821.75C982.63,824.14 981.92,826.6 981.16,829.14C980.4,831.68 979.65,834.12 978.92,836.48C978.19,838.84 977.49,840.99 976.82,842.94C976.15,844.89 975.59,846.5 975.14,847.78L960.27,887.17L950.77,887.17L935.71,847.78C935.22,846.54 934.66,844.96 934.03,843.04C933.4,841.12 932.71,839 931.96,836.66C931.21,834.32 930.45,831.88 929.67,829.34C928.89,826.8 928.11,824.27 927.33,821.75L928.31,821.75C928.37,823.75 928.43,825.92 928.48,828.26C928.53,830.6 928.58,832.97 928.63,835.36C928.68,837.75 928.73,840.02 928.78,842.16C928.83,844.31 928.85,846.18 928.85,847.78L928.85,887.17L918.02,887.17L918.02,887.18Z" style="fill:white;fill-rule:nonzero;"/>
                        </g>
                        <g transform="matrix(1,0,0,1,0,-228.947368)">
                            <path d="M1009.12,887.19L1009.12,814L1054.84,814L1054.84,823.63L1020.23,823.63L1020.23,845.44L1052.35,845.44L1052.35,855.02L1020.23,855.02L1020.23,877.56L1055.13,877.56L1055.13,887.19L1009.12,887.19Z" style="fill:white;fill-rule:nonzero;"/>
                        </g>
                        <g transform="matrix(1,0,0,1,0,-228.947368)">
                            <path d="M1069.32,887.18L1069.32,814L1095.35,814C1100.94,814 1105.6,814.97 1109.34,816.92C1113.08,818.87 1115.87,821.58 1117.72,825.05C1119.57,828.52 1120.5,832.5 1120.5,836.98C1120.5,841.5 1119.57,845.45 1117.7,848.84C1115.83,852.23 1113.03,854.86 1109.29,856.72C1105.55,858.59 1100.87,859.52 1095.25,859.52L1075.7,859.52L1075.7,849.94L1094.17,849.94C1097.74,849.94 1100.63,849.42 1102.82,848.39C1105.01,847.36 1106.63,845.88 1107.67,843.95C1108.71,842.02 1109.23,839.69 1109.23,836.98C1109.23,834.23 1108.71,831.86 1107.67,829.86C1106.63,827.86 1105,826.32 1102.8,825.22C1100.59,824.12 1097.68,823.57 1094.08,823.57L1080.43,823.57L1080.43,887.17L1069.32,887.17L1069.32,887.18ZM1110.6,887.18L1093,854.13L1105.33,854.13L1123.22,887.18L1110.6,887.18Z" style="fill:white;fill-rule:nonzero;"/>
                        </g>
                        <g transform="matrix(1,0,0,1,0,-228.947368)">
                            <rect x="1134" y="814" width="11.11" height="73.18" style="fill:white;fill-rule:nonzero;"/>
                        </g>
                        <g transform="matrix(1,0,0,1,0,-228.947368)">
                            <path d="M1191.37,888.16C1185.1,888.16 1179.49,886.66 1174.55,883.67C1169.61,880.67 1165.73,876.37 1162.9,870.75C1160.07,865.13 1158.66,858.43 1158.66,850.64C1158.66,842.81 1160.07,836.1 1162.9,830.48C1165.73,824.87 1169.61,820.55 1174.55,817.54C1179.49,814.53 1185.09,813.02 1191.37,813.02C1195.2,813.02 1198.8,813.58 1202.17,814.69C1205.53,815.8 1208.54,817.42 1211.19,819.55C1213.84,821.68 1216.03,824.26 1217.77,827.31C1219.51,830.36 1220.69,833.81 1221.3,837.67L1210.14,837.67C1209.68,835.35 1208.88,833.29 1207.73,831.51C1206.58,829.73 1205.17,828.21 1203.51,826.97C1201.85,825.73 1200,824.79 1197.95,824.17C1195.9,823.55 1193.74,823.24 1191.47,823.24C1187.31,823.24 1183.58,824.3 1180.28,826.41C1176.98,828.52 1174.39,831.62 1172.51,835.69C1170.63,839.77 1169.68,844.75 1169.68,850.64C1169.68,856.53 1170.64,861.52 1172.56,865.59C1174.48,869.67 1177.08,872.74 1180.36,874.82C1183.64,876.9 1187.35,877.94 1191.47,877.94C1193.74,877.94 1195.9,877.62 1197.93,876.98C1199.96,876.34 1201.81,875.41 1203.49,874.18C1205.16,872.95 1206.58,871.44 1207.73,869.64C1208.88,867.84 1209.69,865.79 1210.14,863.5L1221.35,863.5C1220.8,867.1 1219.68,870.4 1217.99,873.4C1216.3,876.4 1214.14,879.01 1211.51,881.23C1208.88,883.46 1205.86,885.17 1202.47,886.36C1199.06,887.56 1195.37,888.16 1191.37,888.16Z" style="fill:white;fill-rule:nonzero;"/>
                        </g>
                        <g transform="matrix(1,0,0,1,0,-228.947368)">
                            <path d="M1228.85,887.18L1254.68,814L1268.33,814L1294.65,887.18L1282.61,887.18L1268.48,846.47C1267.37,843.16 1266.16,839.27 1264.85,834.78C1263.53,830.29 1262.02,824.91 1260.29,818.62L1262.53,818.62C1260.87,824.97 1259.39,830.41 1258.07,834.95C1256.75,839.49 1255.59,843.32 1254.58,846.47L1240.88,887.18L1228.85,887.18ZM1242.84,867.88L1242.84,858.55L1280.62,858.55L1280.62,867.88L1242.84,867.88Z" style="fill:white;fill-rule:nonzero;"/>
                        </g>
                        <g transform="matrix(1,0,0,1,0,-228.947368)">
                            <path d="M1305.18,887.18L1305.18,814L1318,814L1345.34,857.56C1346.25,859 1347.27,860.72 1348.41,862.72C1349.55,864.72 1350.75,866.97 1352.02,869.47C1353.29,871.97 1354.54,874.7 1355.77,877.65L1354.4,877.65C1354.11,874.87 1353.89,872.11 1353.74,869.37C1353.59,866.64 1353.49,864.07 1353.42,861.68C1353.35,859.29 1353.32,857.28 1353.32,855.64L1353.32,814L1364.58,814L1364.58,887.18L1351.71,887.18L1327.19,848.23C1325.89,846.1 1324.61,843.96 1323.36,841.8C1322.11,839.64 1320.73,837.14 1319.22,834.31C1317.71,831.48 1315.86,828.03 1313.69,823.97L1315.44,823.97C1315.6,827.57 1315.76,830.94 1315.93,834.06C1316.09,837.19 1316.21,839.95 1316.3,842.36C1316.38,844.77 1316.42,846.69 1316.42,848.13L1316.42,887.17L1305.18,887.17L1305.18,887.18Z" style="fill:white;fill-rule:nonzero;"/>
                        </g>
                    </g>
                </g>
                <g>
                    <g>
                        <g transform="matrix(1,0,0,1,0,-228.947368)">
                            <path d="M711.67,1011.51L711.67,891.78L743.89,891.78L743.89,937.26L786.64,937.26L786.64,891.78L818.86,891.78L818.86,1011.51L786.64,1011.51L786.64,963.46L743.89,963.46L743.89,1011.51L711.67,1011.51Z" style="fill:white;fill-rule:nonzero;"/>
                        </g>
                        <g transform="matrix(1,0,0,1,0,-228.947368)">
                            <path d="M865.69,1012.52C859.28,1012.52 853.54,1010.99 848.47,1007.92C843.4,1004.86 839.41,1000.45 836.51,994.71C833.6,988.97 832.15,982.11 832.15,974.14C832.15,966.14 833.6,959.27 836.51,953.52C839.42,947.78 843.4,943.37 848.47,940.29C853.54,937.21 859.28,935.67 865.69,935.67C872.1,935.67 877.83,937.21 882.86,940.29C887.89,943.37 891.86,947.78 894.77,953.52C897.68,959.26 899.13,966.13 899.13,974.14C899.13,982.11 897.68,988.96 894.77,994.71C891.86,1000.45 887.89,1004.86 882.86,1007.92C877.83,1010.99 872.1,1012.52 865.69,1012.52ZM865.69,1002.07C869.91,1002.07 873.69,1001.01 877.03,998.88C880.37,996.75 883.01,993.61 884.96,989.44C886.9,985.27 887.88,980.17 887.88,974.15C887.88,968.06 886.91,962.93 884.96,958.76C883.02,954.59 880.37,951.44 877.03,949.32C873.69,947.19 869.91,946.13 865.69,946.13C861.44,946.13 857.63,947.2 854.28,949.34C850.92,951.48 848.27,954.64 846.33,958.81C844.39,962.98 843.41,968.09 843.41,974.15C843.41,980.18 844.38,985.27 846.33,989.42C848.27,993.57 850.92,996.72 854.28,998.86C857.63,1001 861.44,1002.07 865.69,1002.07Z" style="fill:white;fill-rule:nonzero;"/>
                        </g>
                        <g transform="matrix(1,0,0,1,0,-228.947368)">
                            <path d="M941.85,1012.47C935.6,1012.47 930.13,1011.34 925.43,1009.08C920.73,1006.82 917.07,1003.62 914.46,999.49C911.85,995.36 910.55,990.51 910.55,984.95L910.55,936.69L928.15,936.69L928.15,983.5C928.15,986.11 928.73,988.44 929.89,990.48C931.05,992.52 932.66,994.12 934.7,995.28C936.74,996.44 939.13,997.01 941.85,997.01C944.57,997.01 946.98,996.43 949.05,995.28C951.13,994.12 952.74,992.53 953.88,990.48C955.03,988.44 955.6,986.11 955.6,983.5L955.6,936.69L973.2,936.69L973.2,984.95C973.2,990.51 971.89,995.36 969.26,999.49C966.64,1003.63 962.97,1006.82 958.27,1009.08C953.58,1011.34 948.1,1012.47 941.85,1012.47Z" style="fill:white;fill-rule:nonzero;stroke:white;stroke-width:7.78px;"/>
                        </g>
                        <g transform="matrix(1,0,0,1,0,-228.947368)">
                            <path d="M1013.43,1012.52C1007.25,1012.52 1001.87,1011.58 997.28,1009.71C992.69,1007.83 989.12,1004.99 986.56,1001.17C984,997.35 982.67,992.57 982.57,986.81L999.47,986.81C999.64,989.22 1000.29,991.25 1001.44,992.89C1002.59,994.53 1004.16,995.76 1006.18,996.58C1008.19,997.4 1010.54,997.81 1013.23,997.81C1015.66,997.81 1017.75,997.48 1019.51,996.81C1021.27,996.14 1022.63,995.2 1023.57,994C1024.52,992.79 1024.99,991.39 1024.99,989.78C1024.99,988.34 1024.55,987.12 1023.67,986.11C1022.79,985.11 1021.47,984.22 1019.71,983.45C1017.95,982.68 1015.71,981.99 1012.98,981.39L1005.1,979.53C998.69,978.06 993.65,975.65 990,972.3C986.34,968.95 984.52,964.47 984.52,958.84C984.52,954.22 985.77,950.17 988.26,946.69C990.75,943.21 994.17,940.5 998.5,938.58C1002.84,936.66 1007.81,935.69 1013.43,935.69C1019.18,935.69 1024.16,936.67 1028.38,938.63C1032.6,940.59 1035.87,943.32 1038.2,946.82C1040.53,950.32 1041.72,954.38 1041.79,959L1024.89,959C1024.66,956.29 1023.56,954.18 1021.6,952.67C1019.64,951.16 1016.9,950.41 1013.38,950.41C1011.05,950.41 1009.09,950.72 1007.5,951.34C1005.9,951.96 1004.71,952.81 1003.91,953.9C1003.11,954.99 1002.71,956.24 1002.71,957.64C1002.71,959.18 1003.16,960.48 1004.06,961.53C1004.96,962.58 1006.24,963.46 1007.9,964.17C1009.56,964.87 1011.49,965.48 1013.68,965.98L1020.11,967.49C1023.7,968.26 1026.9,969.31 1029.71,970.63C1032.52,971.95 1034.89,973.54 1036.84,975.38C1038.78,977.22 1040.26,979.35 1041.28,981.76C1042.29,984.17 1042.8,986.87 1042.8,989.85C1042.8,994.57 1041.63,998.63 1039.29,1002.03C1036.95,1005.43 1033.59,1008.03 1029.22,1009.84C1024.84,1011.61 1019.58,1012.52 1013.43,1012.52Z" style="fill:white;fill-rule:nonzero;stroke:white;stroke-width:7.78px;"/>
                        </g>
                        <g transform="matrix(1,0,0,1,0,-228.947368)">
                            <rect x="1054.61" y="936.68" width="11.36" height="74.83" style="fill:white;fill-rule:nonzero;"/>
                        </g>
                        <g transform="matrix(1,0,0,1,0,-228.947368)">
                            <path d="M1082.42,1011.51L1082.42,936.68L1095.53,936.68L1123.49,981.23C1124.42,982.7 1125.47,984.46 1126.63,986.5C1127.79,988.54 1129.02,990.84 1130.32,993.41C1131.62,995.97 1132.89,998.76 1134.16,1001.77L1132.76,1001.77C1132.46,998.92 1132.24,996.1 1132.09,993.31C1131.94,990.52 1131.83,987.89 1131.77,985.45C1131.7,983.01 1131.67,980.95 1131.67,979.27L1131.67,936.68L1143.18,936.68L1143.18,1011.51L1130.02,1011.51L1104.95,971.68C1103.62,969.5 1102.32,967.31 1101.04,965.1C1099.76,962.89 1098.35,960.34 1096.8,957.44C1095.26,954.54 1093.37,951.02 1091.14,946.87L1092.93,946.87C1093.1,950.55 1093.26,953.99 1093.43,957.19C1093.6,960.39 1093.72,963.22 1093.8,965.68C1093.88,968.14 1093.92,970.11 1093.92,971.58L1093.92,1011.51L1082.42,1011.51Z" style="fill:white;fill-rule:nonzero;"/>
                        </g>
                        <g transform="matrix(1,0,0,1,0,-228.947368)">
                            <path d="M1190.83,1012.52C1184.12,1012.52 1178.23,1010.96 1173.16,1007.85C1168.09,1004.74 1164.14,1000.31 1161.3,994.57C1158.46,988.83 1157.04,982.02 1157.04,974.15C1157.04,966.18 1158.48,959.33 1161.35,953.58C1164.22,947.84 1168.17,943.42 1173.19,940.32C1178.21,937.22 1183.92,935.67 1190.34,935.67C1194.33,935.67 1198.06,936.26 1201.53,937.45C1205,938.64 1208.11,940.33 1210.85,942.52C1213.59,944.71 1215.85,947.32 1217.63,950.35C1219.41,953.38 1220.6,956.7 1221.19,960.32L1209.53,960.32C1208.86,958.14 1207.95,956.18 1206.79,954.42C1205.63,952.66 1204.24,951.16 1202.63,949.92C1201.02,948.68 1199.19,947.74 1197.15,947.08C1195.11,946.43 1192.87,946.1 1190.45,946.1C1186.26,946.1 1182.5,947.17 1179.16,949.31C1175.82,951.45 1173.18,954.61 1171.24,958.78C1169.3,962.95 1168.32,968.05 1168.32,974.07C1168.32,980.1 1169.29,985.19 1171.24,989.34C1173.18,993.49 1175.85,996.65 1179.24,998.81C1182.63,1000.97 1186.52,1002.05 1190.9,1002.05C1194.89,1002.05 1198.37,1001.24 1201.34,999.61C1204.31,997.99 1206.62,995.68 1208.27,992.68C1209.91,989.68 1210.74,986.14 1210.74,982.06L1213.68,982.56L1192.55,982.56L1192.55,973.12L1221.86,973.12L1221.86,981.71C1221.86,988 1220.52,993.45 1217.85,998.06C1215.17,1002.66 1211.51,1006.22 1206.86,1008.73C1202.18,1011.26 1196.84,1012.52 1190.83,1012.52Z" style="fill:white;fill-rule:nonzero;"/>
                        </g>
                    </g>
                </g>
                <g>
                    <g>
                        <g transform="matrix(1,0,0,1,0,-228.947368)">
                            <path d="M629.13,1138.17L667.65,1018.44L711.67,1018.44L751.63,1138.17L715.1,1138.17L701.3,1091.72C698.32,1081.65 695.53,1071.19 692.93,1060.34C690.32,1049.49 687.85,1038.71 685.51,1028L692.85,1028C690.62,1038.72 688.36,1049.5 686.07,1060.34C683.78,1071.19 681.21,1081.65 678.33,1091.72L665.17,1138.17L629.13,1138.17ZM657.68,1115.18L657.68,1090.91L723.08,1090.91L723.08,1115.18L657.68,1115.18Z" style="fill:white;fill-rule:nonzero;"/>
                        </g>
                        <g transform="matrix(1,0,0,1,0,-228.947368)">
                            <path d="M793.13,1139.32C787.18,1139.32 781.98,1138.16 777.53,1135.85C773.08,1133.54 769.63,1130.37 767.19,1126.33C764.75,1122.29 763.53,1117.67 763.53,1112.44L763.53,1063.32L774.89,1063.32L774.89,1111.48C774.89,1114.86 775.63,1117.86 777.11,1120.47C778.59,1123.08 780.69,1125.14 783.42,1126.65C786.14,1128.16 789.38,1128.91 793.14,1128.91C796.86,1128.91 800.08,1128.16 802.79,1126.65C805.5,1125.14 807.58,1123.08 809.05,1120.47C810.51,1117.86 811.24,1114.86 811.24,1111.48L811.24,1063.32L822.65,1063.32L822.65,1112.44C822.65,1117.66 821.43,1122.29 818.99,1126.33C816.55,1130.37 813.11,1133.54 808.67,1135.85C804.22,1138.17 799.04,1139.32 793.13,1139.32Z" style="fill:white;fill-rule:nonzero;"/>
                        </g>
                        <g transform="matrix(1,0,0,1,0,-228.947368)">
                            <path d="M835.35,1073.18L835.35,1063.34L893.02,1063.34L893.02,1073.18L869.94,1073.18L869.94,1138.17L858.53,1138.17L858.53,1073.18L835.35,1073.18Z" style="fill:white;fill-rule:nonzero;"/>
                        </g>
                        <g transform="matrix(1,0,0,1,0,-228.947368)">
                            <path d="M905.73,1138.17L905.73,1063.34L917.09,1063.34L917.09,1094.98L953.88,1094.98L953.88,1063.34L965.29,1063.34L965.29,1138.17L953.88,1138.17L953.88,1104.82L917.09,1104.82L917.09,1138.17L905.73,1138.17Z" style="fill:white;fill-rule:nonzero;"/>
                        </g>
                        <g transform="matrix(1,0,0,1,0,-228.947368)">
                            <path d="M1012.69,1139.17C1006.28,1139.17 1000.54,1137.64 995.47,1134.57C990.4,1131.51 986.41,1127.1 983.51,1121.36C980.6,1115.62 979.15,1108.76 979.15,1100.79C979.15,1092.79 980.6,1085.92 983.51,1080.17C986.42,1074.43 990.4,1070.02 995.47,1066.94C1000.54,1063.86 1006.28,1062.32 1012.69,1062.32C1019.1,1062.32 1024.83,1063.86 1029.86,1066.94C1034.89,1070.02 1038.86,1074.43 1041.77,1080.17C1044.68,1085.91 1046.13,1092.78 1046.13,1100.79C1046.13,1108.76 1044.68,1115.61 1041.77,1121.36C1038.86,1127.1 1034.89,1131.51 1029.86,1134.57C1024.83,1137.63 1019.11,1139.17 1012.69,1139.17ZM1012.69,1128.72C1016.91,1128.72 1020.69,1127.66 1024.03,1125.53C1027.37,1123.4 1030.01,1120.26 1031.96,1116.09C1033.9,1111.92 1034.88,1106.82 1034.88,1100.8C1034.88,1094.71 1033.91,1089.58 1031.96,1085.41C1030.02,1081.24 1027.37,1078.09 1024.03,1075.97C1020.69,1073.84 1016.91,1072.78 1012.69,1072.78C1008.44,1072.78 1004.63,1073.85 1001.28,1075.99C997.92,1078.13 995.27,1081.29 993.33,1085.46C991.39,1089.63 990.41,1094.74 990.41,1100.8C990.41,1106.83 991.38,1111.92 993.33,1116.07C995.27,1120.22 997.92,1123.37 1001.28,1125.51C1004.64,1127.65 1008.44,1128.72 1012.69,1128.72Z" style="fill:white;fill-rule:nonzero;"/>
                        </g>
                        <g transform="matrix(1,0,0,1,0,-228.947368)">
                            <path d="M1060,1138.18L1060,1063.34L1086.62,1063.34C1092.33,1063.34 1097.1,1064.34 1100.93,1066.33C1104.75,1068.32 1107.61,1071.09 1109.5,1074.64C1111.39,1078.19 1112.34,1082.26 1112.34,1086.84C1112.34,1091.46 1111.38,1095.5 1109.47,1098.97C1107.56,1102.44 1104.69,1105.12 1100.87,1107.03C1097.05,1108.94 1092.26,1109.89 1086.51,1109.89L1066.52,1109.89L1066.52,1100.1L1085.41,1100.1C1089.07,1100.1 1092.01,1099.57 1094.26,1098.52C1096.51,1097.47 1098.16,1095.95 1099.22,1093.98C1100.28,1092.01 1100.82,1089.63 1100.82,1086.85C1100.82,1084.04 1100.29,1081.61 1099.22,1079.57C1098.16,1077.53 1096.5,1075.95 1094.24,1074.82C1091.98,1073.7 1089.01,1073.14 1085.32,1073.14L1071.36,1073.14L1071.36,1138.18L1060,1138.18ZM1102.22,1138.17L1084.23,1104.37L1096.84,1104.37L1115.13,1138.17L1102.22,1138.17Z" style="fill:white;fill-rule:nonzero;"/>
                        </g>
                    </g>
                </g>
                <g transform="matrix(1,0,0,1,0,-228.947368)">
                    <path d="M735.63,789.05L720.81,785.95L551.16,1140.48" style="fill:rgb(31,96,255);fill-rule:nonzero;"/>
                </g>
            </g>
        </g>
    </g>
</svg>
